Coordinates
version=1
nRows=60
nColumns=12
inDegrees=yes

Units are S.I. units (second, meters, Newtons, ...)
Angles are in degrees

endheader
time	SC_y	SC_z	SC_x	AC_y	AC_z	AC_x	GH_y	GH_z	GH_yy	EL_x	PS_y
       0.0              -11.44          32.52          1.374          39.06         -2.342         -15.24         -146.1          19.79          148.8          118.1          78.02
   0.01927              -11.44          32.51          1.384          39.06         -2.342         -15.24         -146.1          19.78          148.8          118.1          78.01
   0.03854              -11.44          32.51          1.395          39.06         -2.343         -15.24         -146.1          19.78          148.7          118.1           78.0
   0.05781              -11.45           32.5          1.406          39.06         -2.343         -15.23         -146.1          19.77          148.7          118.1           78.0
   0.07707              -11.45           32.5          1.418          39.06         -2.343         -15.23         -146.1          19.77          148.6          118.1          77.99
   0.09634              -11.45          32.49          1.431          39.06         -2.343         -15.23         -146.1          19.76          148.6          118.1          77.98
    0.1156              -11.45          32.48          1.444          39.06         -2.344         -15.23         -146.1          19.76          148.5          118.1          77.97
    0.1349              -11.45          32.47          1.459          39.06         -2.344         -15.22         -146.1          19.75          148.5          118.2          77.96
    0.1541              -11.45          32.47          1.475          39.06         -2.344         -15.22         -146.1          19.75          148.4          118.2          77.95
    0.1734              -11.45          32.46          1.491          39.06         -2.345         -15.22         -146.1          19.74          148.3          118.2          77.94
    0.1927              -11.46          32.45          1.509          39.06         -2.345         -15.21         -146.1          19.74          148.3          118.2          77.93
     0.212              -11.46          32.44          1.529          39.06         -2.346         -15.21         -146.0          19.73          148.2          118.2          77.92
    0.2312              -11.46          32.43           1.55          39.06         -2.346          -15.2         -146.0          19.72          148.1          118.2          77.91
    0.2505              -11.46          32.41          1.572          39.06         -2.347          -15.2         -146.0          19.71          148.0          118.2          77.89
    0.2698              -11.47           32.4          1.597          39.06         -2.347         -15.19         -146.0           19.7          147.9          118.2          77.88
     0.289              -11.47          32.39          1.623          39.06         -2.348         -15.19         -146.0          19.69          147.8          118.2          77.86
    0.3083              -11.47          32.37          1.652          39.06         -2.348         -15.18         -146.0          19.68          147.7          118.2          77.84
    0.3276              -11.48          32.36          1.683          39.07         -2.349         -15.18         -146.0          19.67          147.6          118.2          77.82
    0.3468              -11.48          32.34          1.717          39.07          -2.35         -15.17         -146.0          19.66          147.4          118.2           77.8
    0.3661              -11.48          32.32          1.755          39.07         -2.351         -15.16         -145.9          19.64          147.3          118.2          77.78
    0.3854              -11.49           32.3          1.796          39.07         -2.352         -15.15         -145.9          19.63          147.1          118.2          77.75
    0.4046              -11.49          32.27          1.841          39.07         -2.353         -15.14         -145.9          19.61          146.9          118.2          77.72
    0.4239               -11.5          32.25          1.891          39.07         -2.354         -15.13         -145.9          19.59          146.7          118.2          77.69
    0.4432              -11.51          32.22          1.947          39.07         -2.355         -15.12         -145.8          19.57          146.5          118.2          77.66
    0.4624              -11.51          32.18          2.008          39.07         -2.356         -15.11         -145.8          19.55          146.2          118.3          77.62
    0.4817              -11.52          32.15          2.077          39.07         -2.358          -15.1         -145.8          19.52          145.9          118.3          77.57
     0.501              -11.53          32.11          2.154          39.07          -2.36         -15.08         -145.7          19.49          145.6          118.3          77.53
    0.5203              -11.54          32.06          2.241          39.07         -2.361         -15.06         -145.7          19.46          145.2          118.3          77.47
    0.5395              -11.55          32.01          2.338          39.07         -2.364         -15.04         -145.6          19.43          144.8          118.3          77.41
    0.5588              -11.56          31.95          2.449          39.07         -2.366         -15.02         -145.6          19.38          144.4          118.3          77.34
    0.5781              -11.58          31.88          2.576          39.07         -2.369          -15.0         -145.5          19.34          143.9          118.4          77.26
    0.5973              -11.59          31.81          2.722          39.07         -2.372         -14.97         -145.4          19.28          143.3          118.4          77.17
    0.6166              -11.61          31.72           2.89          39.08         -2.376         -14.93         -145.4          19.22          142.6          118.4          77.06
    0.6359              -11.63          31.61          3.085          39.08          -2.38         -14.89         -145.3          19.15          141.8          118.5          76.94
    0.6551              -11.66          31.49          3.314          39.08         -2.386         -14.85         -145.2          19.06          140.8          118.5           76.8
    0.6744              -11.69          31.35          3.583          39.08         -2.392         -14.79         -145.0          18.96          139.7          118.6          76.63
    0.6937              -11.73          31.18          3.903          39.09         -2.399         -14.73         -144.9          18.84          138.4          118.6          76.43
    0.7129              -11.77          30.98          4.286          39.09         -2.407         -14.65         -144.7           18.7          136.8          118.7          76.19
    0.7322              -11.82          30.73           4.75          39.09         -2.418         -14.55         -144.4          18.52          134.9          118.8           75.9
    0.7515              -11.89          30.43          5.317           39.1          -2.43         -14.44         -144.2          18.31          132.5          118.9          75.54
    0.7707              -11.96          30.06          6.017           39.1         -2.446          -14.3         -143.8          18.05          129.6          119.0           75.1
      0.79              -12.06           29.6           6.89          39.11         -2.466         -14.12         -143.4          17.72          126.0          119.2          74.55
    0.8093              -12.19          29.02          7.989          39.12          -2.49          -13.9         -142.8          17.31          121.5          119.4          73.86
    0.8285              -12.34          28.28          9.386          39.14         -2.522         -13.61         -142.1          16.79          115.7          119.6          72.99
    0.8478              -12.55          27.33          11.17          39.15         -2.562         -13.25         -141.2          16.12          108.3          120.0          71.86
    0.8671               -12.8          26.12          13.47          39.17         -2.613         -12.78         -140.1          15.27          98.85          120.4          70.42
    0.8864              -13.13          24.57           16.4           39.2         -2.679         -12.19         -138.6          14.17          86.73          121.0          68.58
    0.9056              -13.55          22.62          20.09          39.23         -2.761         -11.44         -136.8          12.79           71.5          121.6          66.27
    0.9249              -14.06          20.24          24.58          39.27         -2.862         -10.52         -134.5          11.11          52.94          122.5          63.45
    0.9442              -14.64          17.48          29.79          39.32         -2.979         -9.467         -131.9          9.167          31.42          123.5          60.18
    0.9634              -15.28           14.5          35.42          39.37         -3.105         -8.321         -129.1           7.06          8.122          124.5          56.64
    0.9827              -15.91          11.52          41.06          39.42         -3.231         -7.175         -126.3          4.953         -15.18          125.6           53.1
     1.002               -16.5           8.76          46.27          39.47         -3.348         -6.117         -123.7          3.007         -36.69          126.6          49.83
     1.021               -17.0          6.382          50.76          39.51         -3.449         -5.205         -121.4          1.328         -55.25          127.4          47.01
     1.041              -17.42          4.432          54.45          39.55         -3.531         -4.456         -119.6       -0.04961         -70.49          128.1          44.69
      1.06              -17.75           2.88          57.38          39.57         -3.597          -3.86         -118.1         -1.145          -82.6          128.7          42.85
     1.079              -18.01          1.665          59.67          39.59         -3.648         -3.394         -117.0         -2.003         -92.09          129.1          41.41
     1.098              -18.21         0.7189          61.46          39.61         -3.688          -3.03         -116.1         -2.671         -99.48          129.4          40.29
     1.118              -18.37       -0.02055          62.86          39.62          -3.72         -2.746         -115.4         -3.194         -105.3          129.7          39.41
     1.137              -18.49        -0.6022          63.96          39.63         -3.744         -2.523         -114.8         -3.604         -109.8          129.9          38.72
